<?xml version="1.0" encoding="utf-8"?>
<!-- Generator: Adobe Illustrator 26.0.3, SVG Export Plug-In . SVG Version: 6.00 Build 0)  -->
<svg version="1.1" id="Layer_1" xmlns="http://www.w3.org/2000/svg" xmlns:xlink="http://www.w3.org/1999/xlink" x="0px" y="0px"
	 viewBox="0 0 8725.56 8447.98" style="enable-background:new 0 0 8725.56 8447.98;" xml:space="preserve">
<style type="text/css">
	.st0{fill:#FFFFFF;}
	.st1{fill:#2C5DA8;}
	.st2{fill:none;}
	.st3{fill:#2E5DA8;}
	.st4{fill:#010202;}
	.st5{font-family:'Avenir-Light';}
	.st6{font-size:250px;}
</style>
<circle id="Background" class="st0" cx="4361.02" cy="4239.58" r="3812.88"/>
<g id="Wave">
	<g>
		<path class="st1" d="M7223.46,4672.13h-5.56h-67.96h-72.08c-5.2,31.74-10.94,63.3-17.39,94.67
			c-15.96-97.54-204.41-144.52-259.1-145.24c-235.25-5.02-271.29,94.85-527.16,131.25c-309.84,43.93-494.71-10.76-603.91-81.94
			c0.72,0.36,1.61,0.9,2.51,1.26c364.71,189.71,43.21-85.35,36.76-90.73c165.32,63.48,421.73,115.29,701.99-0.72
			c239.91-99.34,442.35-77.1,584.9-29.59c0,0,8.79,1.79,22.41,6.1c13.63,4.3,31.92,11.48,50.92,22.23
			C7168.05,4623.36,7223.46,4672.13,7223.46,4672.13z"/>
		<path class="st1" d="M7149.94,4672.13h67.96c-214.81,1388.92-1415.45,2452.21-2864.62,2452.21
			c-1448.98,0-2649.63-1063.29-2864.44-2452.21h73.52c-21.7,67.6,0.18,170.52,136.27,325.62l-36.04-141.12
			c-0.18-7.53-1.43-17.21-3.77-29.59C1933.34,6062.48,3035.37,6986.1,4353.28,6986.1c1339.43,0,2455.8-953.74,2707.19-2219.29
			c1.97,11.12,1.61,22.77-1.43,35.14c-6.1,25.1-8.79,42.5-9.32,54.69l-36.04,141.12
			C7149.76,4842.65,7171.64,4739.73,7149.94,4672.13z"/>
		<path class="st1" d="M7149.94,4672.13c21.7,67.6-0.18,170.52-136.27,325.62l36.04-141.12c0.54-12.19,3.23-29.59,9.32-54.69
			c3.05-12.37,3.41-24.03,1.43-35.14c6.46-31.38,12.19-62.94,17.39-94.67H7149.94z"/>
		<path class="st1" d="M7097.22,3288.59c-4.66-2.87-79.07-50.21-165.14-50.21c-397.17-1037.11-1402.01-1773.53-2578.8-1773.53
			c-588.49,0-1133.76,184.15-1581.67,497.76c-447.91,313.79-798.46,757.22-996.95,1275.77c-86.25,0-160.48,47.34-165.14,50.21
			c389.46-1141.11,1470.68-1961.8,2743.76-1961.8C5626.54,1326.79,6707.77,2147.48,7097.22,3288.59z"/>
		<path class="st1" d="M6523.08,5266.71c0,0-650.35,386.77-1165.32,386.77c-515.15,0-344.63-498.48-1055.05-498.48
			s-708.26,498.48-1241.17,498.48c-524.83,0-774.61-483.05-782.32-498.12c11.66,10.04,519.1,453.11,800.07,424.24
			c284.2-29.23,591.89-504.75,1194.19-524.12c602.47-19.19,997.13,434.1,1091.09,524.12
			C5458.53,5669.62,6523.08,5266.71,6523.08,5266.71z"/>
		<path class="st1" d="M5709.56,4581.4c6.46,5.38,327.95,280.44-36.76,90.73c-0.9-0.36-1.79-0.9-2.51-1.26
			c-126.05-82.48-151.34-186.84-151.34-186.84s70.29,50.56,186.66,95.75c1.08,0.54,2.15,0.9,3.41,1.26
			C5709.2,4581.22,5709.38,4581.4,5709.56,4581.4z"/>
		<path class="st1" d="M5709.02,4581.04c-1.26-0.36-2.33-0.72-3.41-1.26C5707.23,4580.33,5708.31,4580.86,5709.02,4581.04z"/>
		<path class="st1" d="M4401.69,1792.09c1595.84,821.77,1602.83,1711.85,1291.01,2190.42c-292.09,447.91-22.59,582.03,12.91,597.27
			c-116.37-45.19-186.66-95.75-186.66-95.75s25.28,104.36,151.34,186.84c-363.1-191.86-42.5-688.36-42.5-688.36
			c616.46-1081.58-920.39-1916.8-920.39-1916.8c121.03,1049.85-957.14,1892.77-973.1,1905.14
			C5101.71,2277.66,4423.57,1806.62,4401.69,1792.09z"/>
		<path class="st1" d="M5929.39,5823.11c-17.75,10.58-508.34,298.37-898.51,298.37c-397.52,0-265.91-384.61-813.88-384.61
			c-548.14,0-546.35,384.61-957.68,384.61c-411.15,0-603.55-384.61-603.55-384.61s398.06,350.19,617.36,327.6
			c219.29-22.59,456.7-389.46,921.28-404.34c464.77-14.88,769.23,334.77,841.67,404.34
			C5107.45,6132.95,5906.98,5831.53,5929.39,5823.11z"/>
		<path class="st1" d="M5460.68,6362.1c-12.37,7.35-329.39,193.11-581.67,193.11c-257.31,0-172.31-249.24-526.98-249.24
			c-354.85,0-353.77,249.24-620.05,249.24c-262.15,0-386.95-241.53-390.71-249.06c7.89,6.81,259.82,226.47,399.68,211.94
			c141.83-14.52,295.5-252.11,596.38-261.61c300.88-9.68,498.12,216.6,545.09,261.61C4928.5,6562.39,5446.16,6367.48,5460.68,6362.1
			z"/>
		<path class="st1" d="M3374.8,4301.32c9.14-12.91,18.29-26.18,27.61-39.99C3400.44,4264.39,3391.11,4279.45,3374.8,4301.32z"/>
		<path class="st1" d="M3170.03,4499.28c97.36-64.37,168.19-148.83,204.77-197.96c-136.81,195.27-243.5,296.57-275.6,325.08
			c76.92-71.19,94.14-142.37,94.14-142.37S3185.27,4489.77,3170.03,4499.28z"/>
		<path class="st1" d="M3193.34,4484.04c0,0-17.21,71.19-94.14,142.37c-3.94,3.77-6.81,6.1-8.43,7.53c-1.08,0.9-1.61,1.26-1.61,1.26
			s-185.4-1.08-35.14-74.95c0.72-0.54,1.61-0.9,2.33-1.08c8.97-3.94,17.39-7.89,25.46-11.83c0.18-0.18,0.54-0.18,0.72-0.36
			c29.94-13.09,58.1-28.69,84.45-45.72c0.9-0.72,1.97-1.43,3.05-1.97C3185.27,4489.77,3193.34,4484.04,3193.34,4484.04z"/>
		<path class="st1" d="M3166.98,4501.25c-26.36,17.03-54.51,32.63-84.45,45.72C3119.46,4529.22,3147.97,4512.91,3166.98,4501.25z"/>
		<path class="st1" d="M3090.77,4633.94c-0.54,0.36-1.08,0.9-1.61,1.26C3089.16,4635.19,3089.7,4634.83,3090.77,4633.94z"/>
		<path class="st1" d="M3081.81,4547.33c-8.07,3.94-16.5,7.89-25.46,11.83C3064.06,4555.22,3072.49,4551.46,3081.81,4547.33z"/>
		<path class="st1" d="M3054.02,4560.24c-150.26,73.88,35.14,74.95,35.14,74.95c-99.87,86.61-291.2,168.73-650.89,117.63
			c-256.05-36.4-292.09-136.27-527.34-131.25c-60.61,0.72-285.1,58.27-258.02,178.41c-8.97-42.32-17.03-84.81-24.03-127.85h-66.52
			h-73.52c0,0,55.41-48.77,153.85-92.7c18.83-10.76,37.12-17.93,50.74-22.23c13.63-4.3,22.41-6.1,22.41-6.1
			c142.73-47.52,344.99-69.75,584.9,29.59C2612.02,4709.61,2893.72,4631.43,3054.02,4560.24z"/>
		<path class="st1" d="M1662.59,4856.64l36.04,141.12c-136.09-155.1-157.97-258.02-136.27-325.62h66.52
			c6.99,43.03,15.06,85.53,24.03,127.85c0,0.72,0.18,1.25,0.36,1.97c2.33,9.5,4.12,17.75,5.56,25.1
			C1661.16,4839.42,1662.41,4849.11,1662.59,4856.64z"/>
	</g>
	<g>
	</g>
</g>
<g id="Inside_Circle">
	<ellipse class="st2" cx="4358.79" cy="4222.36" rx="2759.94" ry="2749.23"/>
	<path class="st3" d="M4358.79,1329.6c-1603.85,0-2904.03,1295.13-2904.03,2892.76s1300.18,2892.76,2904.03,2892.76
		s2904.03-1295.13,2904.03-2892.76S5962.64,1329.6,4358.79,1329.6z M4358.79,6971.59c-1524.28,0-2759.94-1230.87-2759.94-2749.23
		s1235.67-2749.23,2759.94-2749.23S7118.73,2704,7118.73,4222.36S5883.06,6971.59,4358.79,6971.59z"/>
</g>
<g id="Outside_Circle">
	<ellipse class="st2" cx="4358.79" cy="4222.36" rx="3671.14" ry="3656.9"/>
	<path class="st3" d="M4358.79,374.55c-2133.37,0-3862.8,1722.72-3862.8,3847.81s1729.43,3847.81,3862.8,3847.81
		s3862.8-1722.72,3862.8-3847.81S6492.15,374.55,4358.79,374.55z M4358.79,7879.26c-2027.52,0-3671.14-1637.25-3671.14-3656.9
		s1643.63-3656.9,3671.14-3656.9s3671.14,1637.25,3671.14,3656.9S6386.3,7879.26,4358.79,7879.26z"/>
</g>
<path class="st1" d="M4358.79,3041.89c0,0-981.51,1695.35-1812.24,1602.27c-830.73-93.08,61.84,99.63,61.84,99.63
	s736.09,309.09,1894.64-1701.9H4358.79z"/>
<path class="st1" d="M2087.61,4147.29c-63.32-168.84-242.31-57.25-210.42,33.33c31.88,90.58,200,55.8,111.6,204.35
	C1988.78,4384.97,2150.92,4316.13,2087.61,4147.29z M1922.72,4178.88c-28.64-53.04,80.65-139.61,136.44-41.13
	c55.79,98.48-31.99,193.23-31.99,193.23C2067.44,4230.23,1951.36,4231.92,1922.72,4178.88z"/>
<path class="st1" d="M1804.84,4000.32c-85.81-77.51-154.87,38.79-110.02,80.99c44.85,42.19,130.35-27.15,123.77,83.5
	C1818.59,4164.81,1890.65,4077.83,1804.84,4000.32z M1720.24,4066.9c-31.94-21.77,4.79-103.28,65.59-63.62
	c60.79,39.65,38.72,119.48,38.72,119.48C1817.79,4053.5,1752.18,4088.67,1720.24,4066.9z"/>
<path class="st1" d="M1868.52,4261.68c-102.78-46.37-132.21,82.2-77.99,108c54.22,25.8,112.92-64.08,139.81,40.61
	C1930.34,4410.29,1971.3,4308.04,1868.52,4261.68z M1809.84,4348.72c-36.14-10.69-26.35-97.31,41.92-78.63s71.57,99.37,71.57,99.37
	C1896.4,4307.19,1845.98,4359.4,1809.84,4348.72z"/>
<path id="SVGID_x5F_1_x5F_" class="st2" d="M1319.05,4228.42c0-1684.96,1365.93-3050.89,3050.89-3050.89
	s3050.89,1365.93,3050.89,3050.89S6054.91,7279.31,4369.94,7279.31S1319.05,5913.38,1319.05,4228.42z"/>
<text><textPath  xlink:href="#SVGID_x5F_1_x5F_" startOffset="4144.3169%">
<tspan  style="fill:#0E0E0E; font-family:'TrajanPro3-Regular'; font-size:588.3957px;">Fishmonger’s Plaice</tspan></textPath>
</text>
<path id="SVGID_x5F_00000047743625710736590450000005149203767683317423_x5F_" class="st2" d="M1035.43,4560.43
	c0,1704.57,1487.51,3086.4,3322.44,3086.4S7680.31,6265,7680.31,4560.43s-1487.51-3086.4-3322.44-3086.4
	S1035.43,2855.86,1035.43,4560.43z"/>
<text><textPath  xlink:href="#SVGID_x5F_00000047743625710736590450000005149203767683317423_x5F_" startOffset="276.899%">
<tspan  class="st3" style="font-family:'TrajanPro3-Regular'; font-size:421.4215px;">traditional fishmonger’s</tspan></textPath>
</text>
<g id="Fish_Live_Paint">
	<g>
		<path class="st4" d="M2232.34,2192.22c-278.92,54.26-344.44,349.19-340.4,503.02c-24.88,293.36,225.85,667.97,375.99,892.48
			c34.67,51.69,64.56,96.44,75.04,117.2c3.96,21.89-53.44,93-75.03,119.75c-53.29,65.97-113.74,140.84-78.71,221.22
			c5.84,13.46,15.64,35.95,34.62,56.96c18.82,21.06,46.84,40.57,89.19,48.15c64.31,11.52,157.84-6.07,355.88-49.02
			c88.69-19.2,175.89-21.35,259.35-6.4c119.11,21.33,189.85,70.86,190.57,71.36l8.67,6.38l9.45,3.7
			c115.13,47.3,230.18,81.35,342.02,101.38c120.27,21.54,229,25.7,325.38,19.17c7.9,35.16,36.24,62.01,74.19,68.81
			c5.98,1.07,18.44,3.3,38.14,70.08c38.97,132.29,122.94,153.12,249.78,181.93c6.26,12.79,11.46,44.34,14.37,62.11
			c9.16,55.53,24.55,148.44,116.16,164.84c61.79,11.06,120.98-26.42,165.63-60.35c76.89-58.33,123.05-144.68,149.55-238.71
			c-36.65-2.85-69.02-32.5-63.09-132.89c-14.25,115.7-51.84,235.1-139.5,301.68c-207.22,157.33-85.58-150.89-218.28-181.05
			c-132.77-30.17-166.52-41.34-190.44-122.33c-23.84-81.05-52.33-121.97-106.85-131.74c-46.09-8.25,318.17-85.43,452.78-188.79
			l-73.23-40.17c0,0-405.03,331.43-1103.35,44.8c0,0-202.34-148.46-519.91-79.65c-317.5,68.83-348.75,67.77-380.57-5.27
			c-31.81-73.04,211.22-227,151.64-345.44c-59.59-118.37-474.43-632.06-441.47-967.61c0,0-14.21-364.36,269.25-419.44
			c283.39-55.17,324.86,58.17,324.86,58.17s293.3-234.15,454.89-259.1s134.81,24.14,209.12,10.54
			c31.6-5.86,342.67-108.1,763.65-150.44c669.15-593.99,847.04-541.4,927.98-526.9c84.26,15.09,125.48,127.71,303.94,159.67
			c178.53,31.97,303.46,105.48,423.76,290.76c120.3,185.28,252.13,106.54,397.39,209.33c145.34,102.73,13.69,237.76,166.3,357.18
			c152.54,119.4,152.34,206.4,198.09,465.22c45.73,258.89,205.26,282.4,283.94,414.15c78.75,131.76-47.86,124.47-78.66,553.83
			c-20.87,290.89-204.94,496.14-321.42,598.29c-111.7,307.47-301.85,575.78-560.73,755.52c-37.93,105.96-71.4,229.81-70.1,335.44
			c2.86,240.95,1.01,562.97-70.78,565.42c-71.88,2.51-194.74-111.58-242.23-17.81c-47.5,93.84-63.94,157.42-127.15,110.27
			s-107.6-142.05-239.36-63.3c-131.76,78.75-66.5-114.25-135.57-157.32c-68.99-43.05-152.62,23.81-194.71-55.31
			c-42.08-79.19,86.12-183.77-14.99-202.25c-31.89-5.79-56.92-22.08-76.24-41.6c-16.07,20.83-26.63,42.87-29.76,66.17
			c-27.9,206.01-60.27,1298.66-1008,1352.3c0,0,346.74-396.87,204.74-687.19c-141.94-290.24,67.16-580.49,67.16-580.49
			s-124.9-4.38-154.89-288.1c-30.07-283.66-445.29-546.57-445.29-546.57s728.86-259.99,1121.65,178.41
			c0,0,435.2-312.27,377.63-666.93c-2.29,1.6-44.44,29.87-84.29,30.76c2.22,20.39,2.38,41.08,0.7,62.11
			c-14.93,183.81-179.82,363.36-287.25,456.5c-117.07-106.21-263.77-175.59-437.19-206.65c-357.92-64.09-706.12,57.88-720.74,63.14
			l-169.67,60.52l152.22,96.31c105.5,67.05,384.04,284.31,404.89,481.66c18.14,171.37,70,262.79,121.56,311.49
			c-60.38,119.7-140.72,350.44-25.33,586.42c57.08,116.65,5.92,266.18-46.98,371.09c-63.01,124.81-144.3,218.91-145.12,219.8
			l-136.56,157.05l207.75-11.7c219.62-12.4,410.88-78.49,568.23-196.44c130.84-98.09,239.15-232.7,321.84-400.21
			c102.42-207.53,148.84-431.04,172.86-598.8c24.41,31.8,57.71,52.1,97.82,59.29c25.64,4.59,49.23,3.17,70.1,2
			c12.93-0.81,25.24-1.5,33.82-0.41c2.7,10.22,5.12,26.19,6.73,36.73c7.34,47.84,20.92,136.79,109.93,152.73
			c47.75,8.55,90.17-12.54,117.98-29.19c21.21-12.63,39.71-19.2,49.43-17.46c11.67,2.09,29.68,19.36,47.07,36
			c13.2,12.62,28.17,26.97,45.35,39.78c22.82,17.02,45.05,27.32,67.96,31.42c28.01,5.02,81.52,4.64,126.18-53.81
			c17.45-22.74,30.73-50.39,46.2-82.4c3.43-7.12,6.98-14.51,10.73-22.16c13.48,3.98,30.67,11.36,47.37,18.52
			c28.72,12.28,58.41,24.95,89.67,30.55c12.67,2.27,25.06,3.22,36.81,2.8c40.38-1.39,94.5-22.99,122.83-118.11
			c11.44-38.16,19.6-89.1,25.07-155.76c9.39-114.71,9.09-256.65,7.61-380.37c-0.83-72.54,18.44-168.54,56.04-278.94
			c248.55-180.18,442.15-441.99,561.76-760.01c122.51-111.77,311.93-332.41,334.25-642.96c14.56-202.9,51.18-300.32,75.42-364.73
			c27.88-74.31,52-138.45-8.9-240.4c-34.49-57.68-78.41-96.32-120.85-133.65c-68.44-60.27-127.58-112.26-152.08-250.65
			c-4.6-26.17-8.77-50.63-12.63-73.47c-35.96-211.35-53.97-317.44-217.8-445.63c-46.34-36.32-48.5-67.4-52.52-123.86
			c-4.77-67.97-11.29-161.08-117.11-235.92c-73.03-51.65-143.9-66.8-200.87-79.01c-75.67-16.15-121.33-25.96-173.59-106.45
			c-126.89-195.38-266.49-290.76-481.96-329.35c-83.18-14.89-127.31-51.11-169.94-86.17c-37.91-31.09-77.11-63.31-134-73.5
			l-14.25-2.63c-149.5-26.77-381.27,16.08-966.28,531.57c-344.38,37.11-610.03,111.51-711.75,139.97c-13.3,3.71-27,7.58-31.43,8.64
			c-3.6,0.62-5.71,0.76-6.69,0.81c-1.26-0.45-4.4-1.6-6.69-2.46c-10.32-3.78-25.79-9.52-47.11-13.34
			c-37.95-6.8-84.18-5.56-145.41,3.91c-136.58,21.03-334.2,155.84-434.86,230.28c-26.1-16.12-60.56-30.39-105.86-38.5
			C2408.21,2170.57,2326.67,2173.88,2232.34,2192.22z"/>
		<path class="st3" d="M3581.1,2384.91c1.55-4.93,19.08-68.38-103.92-83.79c-127.87-15.99-144.52,57.07-150.93,92.86
			c-6.4,35.72,34.72,89.16,116.14,101.44s132.61-61.5,146.08-72.4c13.47-10.89,60.79-146.46,35.35-30.16
			c-25.42,116.23-142.39,125.68-194.3,132.51c-51.99,6.82-134.49-47.12-130.86-131.72c3.64-84.67,62.12-141.02,192.47-122.28
			C3617.29,2289.49,3583.4,2379.08,3581.1,2384.91z M4074.34,2308.83c-7.52-4.1-340-186.57-755.84-167.53
			c0,0-240.62-33.87-298.36-7.35c0,0,38.55-53,264.54-12.53C3284.68,2121.41,3897.59,2085.12,4074.34,2308.83z M3606.19,7068.6
			c26.35-15.57,592.68-356.61,822.75-1046.62c1.07-3.08,5.69-1.88,4.96,1.33c-29.13,123.66-109.52,423.59-242.93,616.95
			c4.74-6.14,155.54-202.85,188.62-306.63c-22.74,75.53-183.59,557.49-628.78,705.13c-2.99,0.95-4.76-3.31-1.9-4.73
			c65.58-32.11,207.68-109.68,241.61-194.57c0.92-2.21-1.68-4.31-3.69-3.04C3942.35,6864.42,3673.69,7033.19,3606.19,7068.6z
			 M2954.88,3323.95c4.49-15.1,105.87-375.41-301.96-725.23c-3.42-2.92,0.29-8.27,4.11-5.95
			C2770.04,2660.2,3117.15,2907.5,2954.88,3323.95z M5020.02,1534.1c-25.76,15.6-341.79,208.59-259.74,267.14
			c85.62,61.04,389.21-240.16,583.07-119.08c0,0-198.92-30.57-310.43,147.62c-111.5,178.11-546.06-32.82-799.61,21.29
			c6.5-5.6,421.55-363.48,547.18-361.12c0,0-222.77,137.89-262.77,247.57C4479.08,1843.71,4987.54,1552.73,5020.02,1534.1z
			 M3284.46,2266.68c-2.69,1.75-54.3,35.91-47.58,111.29C3236.88,2377.97,3180.71,2305.63,3284.46,2266.68z M4381.46,6327.35
			c-0.55,1.83-1.04,3.75-1.68,5.65C4380.48,6330.74,4381.05,6328.83,4381.46,6327.35z M5272.22,6149.87
			c6.04-15.49,112.54-290.6,93.67-367.41c-11-44.85-132.97,62.7-236.64,164.32c-14.25,14.02-36.21-5.3-24.21-21.28
			c112.8-149.71,292.61-368.95,495.81-542.83c12.37-10.57,30.81,1.87,25.81,17.33c-25.93,79.64-67.1,229.02-49.83,330.59
			c9.01,53.05,6.81,109.73,0.37,160.24c-2.5,19.77-31.49,18.52-32.23-1.39c-2.39-65.54-10.64-129.45-32.7-142.39
			C5465.17,5719.44,5280.65,6131.01,5272.22,6149.87z M4357.77,3405.26c17.47,7.44,253.01,97.93,424.23-377.19
			c116.33-323,18.34-531.19-63.35-636.56c-11.04-14.31,7.12-32.69,21.6-21.85c121.99,91.19,290.04,292.9,136.77,658.63
			C4660.06,3545.9,4376.59,3414.72,4357.77,3405.26z M5595.26,1909.06c-116.79,81.06,46.66,274.44,124.44,208.24
			c78.75-67.06,202.72-25.91,202.72-25.91c-132.35,21.04-100.35,220.02-24.87,167.53c75.41-52.57,162.62-57.25,162.62-57.25
			c-150.61,216.82-238.09,109.73-238.09,109.73c-344.25-290.27-559.97-191.7-607.73-322.21
			c-47.77-130.45,245.37-235.45,245.37-235.45c-192.66,224.6-98.4,180.53-88.57,238.93
			C5380.18,2045.95,5563.3,1929.8,5595.26,1909.06z M2249.17,2278.4c-283.45,55.08-269.25,419.44-269.25,419.44
			c-32.96,335.55,381.88,849.24,441.47,967.61c59.58,118.44-183.46,272.4-151.64,345.44c31.81,73.04,63.06,74.1,380.57,5.27
			c317.58-68.81,519.91,79.65,519.91,79.65c698.31,286.63,1103.35-44.8,1103.35-44.8c223.78-147.3,361.21,220.47,410.39,387.44
			c0.11,0.24,0.15,0.4,0.19,0.63c9.27,25,15.82,49.88,19.88,74.54c0.18,0.63,0.28,1.31,0.38,2c0.06,0.08,0.06,0.08,0.06,0.08
			s0,0-0.08,0.06c57.57,354.66-377.63,666.93-377.63,666.93c-392.79-438.39-1121.65-178.41-1121.65-178.41
			s415.22,262.92,445.29,546.57c29.99,283.72,154.89,288.1,154.89,288.1s-209.1,290.25-67.16,580.49
			c142,290.32-204.74,687.19-204.74,687.19c947.73-53.63,980.1-1146.29,1008-1352.3c3.13-23.3,13.69-45.34,29.76-66.17
			c19.32,19.51,44.35,35.81,76.24,41.6c101.12,18.48-27.09,123.06,14.99,202.25c42.1,79.11,125.72,12.26,194.71,55.31
			c69.07,43.06,3.81,236.07,135.57,157.32c131.76-78.75,176.16,16.16,239.36,63.3s79.65-16.43,127.15-110.27
			c47.49-93.77,170.36,20.32,242.23,17.81c71.79-2.46,73.64-324.47,70.78-565.42c-1.3-105.63,32.17-229.48,70.1-335.44
			c258.88-179.74,449.03-448.04,560.73-755.52c116.48-102.15,300.54-307.4,321.42-598.29c30.8-429.36,157.41-422.07,78.66-553.83
			c-78.68-131.75-238.21-155.26-283.94-414.15c-45.74-258.81-45.55-345.81-198.09-465.22c-152.61-119.42-20.96-254.45-166.3-357.18
			c-145.26-102.79-277.09-24.05-397.39-209.33c-120.3-185.28-245.24-258.79-423.76-290.76
			c-178.45-31.96-219.68-144.58-303.94-159.67c-80.95-14.5-258.83-67.09-927.98,526.9c-420.98,42.35-732.05,144.58-763.65,150.44
			c-74.31,13.6-47.53-35.49-209.12-10.54s-454.89,259.1-454.89,259.1S2532.56,2223.23,2249.17,2278.4z M2390.81,3476.39
			c-90.38-124.92-447.73-769.54-251-1020.61c137.07-174.79,388.39-71.22,528.33,7.72c12.69,7.18,3.79,26.54-9.99,21.77
			c-383.34-132.12-496.66-4.43-526.87,114.88c-3.3,13.01,14.33,20.85,21.62,9.59c0.22-0.41,0.5-0.73,0.72-1.13
			c6.67-9.88,22.07-4.97,21.94,6.98c-4.54,351.19,148.59,456.88,230.15,488.28c11.96,4.59,21.78-10.37,12.87-19.55
			c-68.36-70.66-89.56-158.15-94.22-225.95c-0.92-13.54,18.05-17.8,23.14-5.15c56.99,140.79,239.8,167.14,351.46,307.24
			c134.55,168.8-180.38,425.84-72.72,478.71c74.72,36.79,161.06-61.02,206.79-124.18c7.99-10.98,25.3-2.23,21.21,10.64
			c-58.67,185.71-322.53,291.13-406.01,320.25c-9.76,3.45-18.92-6.43-14.96-16.06C2501.03,3665.66,2477.02,3595.51,2390.81,3476.39z
			 M2557.66,2381.51c-1.31-0.16-1.69-1.79-0.6-2.49l224.91-136.54c1.5-0.92,2.92,1.12,1.54,2.21l-145.78,113.48
			c-0.86,0.66-0.65,1.96,0.41,2.3c32.21,10.23,371.87,123.97,416.38,406.27c0.26,1.46-1.81,2.2-2.54,0.88
			C3024.43,2716.83,2845.59,2408.09,2557.66,2381.51z M2988.82,3666.94c-31.63,26.37-73.27-17.95-44.88-47.8
			c148.01-155.81,228.49-310.12,259.12-376.58c8.14-17.64,29.77-24.32,46.52-14.49c232.79,136.97,323.8,56.2,351.63,16.59
			c7.89-11.3,21.91-16.52,35.27-13.08c238.78,61.56,324.93,501.91,338.98,584.1c1.65,9.44-0.87,18.95-6.87,26.34
			c-126.91,157.51-779.85,88.16-1013.21,57.74c-28.55-3.7-38.75-39.72-16.45-57.95c61.41-50.32,94.41-102.61,112.01-146.13
			c12.94-32.02-25.5-59.72-51.8-37.37C2995.72,3661.19,2992.3,3664.07,2988.82,3666.94z M3404.5,2368.74
			c-24.32,7.16-31.21-44.46-5.22-48.06c25.98-3.52,131.14,1.48,128.88,65.59c0,0-23.69,16.49-46.88-8.4
			C3458.08,2352.99,3428.89,2361.59,3404.5,2368.74z M3335.24,2671.26c-4.45-3.77,0.17-10.9,5.42-8.25
			c85.58,42.97,292.8,180.35,255.14,489.04c-0.66,5.75-9.09,5.95-9.91,0.16C3573.33,3061.66,3523.73,2830.62,3335.24,2671.26z
			 M3264.82,4061.9c-3.79-1.27-2.32-6.96,1.55-6.19c127.12,24.33,498.35,89.24,700.17,60.42c3.89-0.57,5.12,5.01,1.34,6.19
			C3881.75,4148,3646.46,4191.04,3264.82,4061.9z M3548.18,2570.4c-3.62-18.41,76.27-0.91,133.65-76.85s23.61-199.94,23.61-199.94
			c34.85-5.35,75.3,124.08,47.9,212.75S3551.87,2588.82,3548.18,2570.4z M3736.16,2015.41c-7.3-0.34-7.69-11.04-0.44-12.05
			c1615.15-211.65,2259.05,703.02,2385.51,915.72c3.71,6.24-4.67,12.39-9.61,7.2c-857.38-907.93-1657.62-846.17-1767.42-832.76
			c-5.01,0.59-7.07,6.69-3.47,10.23c59.23,58.55,74.41,172.6,78.33,222.95c0.49,6.41-7.85,9-11.21,3.64
			C4247.62,2071.25,3892.7,2023.6,3736.16,2015.41z M3383.84,5051.67c-6-0.11-7.17-8.49-1.51-10.23
			c117.51-36.11,505.37-125.94,830.16,136.4c4.61,3.72,0.38,11.14-5.19,9.03c-58.96-21.86-195.4-66.8-315.89-63.85
			c-5.31,0.17-7.15,7.12-2.57,9.8c52.23,30.83,221.86,134.05,262.94,199.75c2.89,4.61-2.24,10-6.97,7.37
			C4059.41,5293.05,3614.72,5054.81,3383.84,5051.67z M3461.46,5159.81c0,0,436.12,73.56,660.29,296.02
			c4.86,4.81,0.64,13.05-6.07,11.92c-64.15-11.19-257.55-40.99-373.72-17.35c-6.4,1.31-10.86-6.18-6.68-11.23
			c19.75-23.96,63.69-67.6,125.83-74.31c6.59-0.68,8.71-9.22,3.1-12.75C3800.74,5311.84,3589.87,5182.8,3461.46,5159.81z
			 M3947.58,3402.71c-19.99-19.11,1.44-51.62,26.98-41.1c81.95,33.78,193.28,93.62,304.32,196.98
			c151.48,141.07,322.56-23.62,410.92-133.93c16.57-20.74,49.77-4.84,43.94,21.1c-36.71,163.11-156.54,466.6-543.77,538.4
			c-16.14,2.98-30.63-10.32-29.34-26.66C4167.65,3868.45,4165.88,3611.04,3947.58,3402.71z M4236.77,2483
			c-4.39-9.11,8.1-16.61,14.01-8.49c96.55,134.87,250.84,452.89,17.1,912.28c-2.32,4.64-8.43,6-12.46,2.75l-72.7-57.61
			c-2.99-2.39-3.95-6.58-2.28-10.07C4207.48,3266.64,4407.47,2835.09,4236.77,2483z M3767.13,5516.53
			c-18.72-3.35-29.88-4.98-29.88-4.98C3747.55,5512.13,3757.56,5513.92,3767.13,5516.53c68.41,12.25,237.52,47.88,331.53,113.92
			c4.35,3.08,4.21,9.67-0.19,12.68c-36.51,24.98-175.9,116.48-271,122.94c-6.77,0.42-10.89-7.23-6.81-12.59l86.61-113
			c1.94-2.55,2.14-6.16,0.41-8.92C3895.1,5612.06,3842.7,5536.97,3767.13,5516.53z M3827.87,5963.84
			c-5.15,3.02-10.64-3.24-6.85-7.84c44.12-53.79,154.39-173.18,312.23-239.46c4.42-1.88,8.82,2.62,6.93,6.96
			c-24.29,55.56-134.48,292.32-295.01,401c-4.91,3.36-10.83-2.61-7.28-7.47c26.88-36.36,77.03-109.73,95.64-174.26
			c0.97-3.32-1.57-6.6-4.97-6.69C3912.87,5935.81,3871.9,5937.98,3827.87,5963.84z M3805.37,6283.35c-4.6,1.18-7.63-4.71-4.04-7.71
			c60.99-51.73,308.27-269.6,470.82-536.08c2.85-4.69,9.94-1.12,7.92,3.94c-62.16,153.28-245.49,583.12-401.84,723.24
			c-3.9,3.54-9.62-1.5-6.61-5.87C3907.29,6409,3983,6287.95,4003.17,6167c0.71-4.41-4.59-7.14-7.63-3.89
			C3970.17,6190.22,3897.79,6259.91,3805.37,6283.35z M3806.55,6839.14c-5.44,4.23-12.4-2.96-7.97-8.19
			c59.66-70.03,180.57-218.96,223.74-324.28c2.6-6.22-5.76-10.99-9.84-5.63c-33.59,44.38-100.82,129.26-160.95,180.33
			c-5.18,4.42-12.39-2.22-8.28-7.73c100.77-135.66,484.98-664.58,519.23-884.47c0,0-16.16,137.58-86.01,302.26
			c-2.8,6.49,6.31,11.24,10.06,5.22c61.04-99.29,154.13-289.17,207.61-424.31c0.41-1.04,1.87-0.48,1.55,0.5
			C4450.36,5813.09,4204.29,6527.74,3806.55,6839.14z M4194.81,5651.31c-25.72-2.45-26.17-41.03-14.25-93.9
			c4.59-20.66,34.26-18.24,35.91,2.86c1.08,13.5,4.99,22.37,12.64,24.49c49.62,13.87,612.45-207.18,721.86-284.43
			c72.75-51.41,1004.77-704.17-76.91-1394.28c-16.81-10.74-6.79-36.82,12.8-33.31c145.94,25.91,423.4,85.26,503.06,173.33
			c9.25,10.2,25.87,7.46,30.86-5.47c10.48-27.41,15.56-74.44-27.89-134.77c-10.23-14.24,3.16-33.4,19.92-28.24
			c113.43,34.81,361.21,144.06,412.19,442.98c2.73,15.87,23.34,20.75,32.67,7.63c31.92-45.05,72.73-152.94,9.51-384.71
			c-5.47-20.08,21.65-32.1,32.93-14.54c161.3,251.86,476.94,964.6-725.46,1425.56C5174.65,5354.51,4373.68,5668.1,4194.81,5651.31z
			 M4283.53,5398.29c-3.14-40.55,6.86-162.81,208.09-292.07c3.78-2.44,7.87,2.52,4.71,5.67c-49.05,48.15-155,161.62-205.7,287.45
			C4289.15,5403.01,4283.79,5402.2,4283.53,5398.29z M4445.89,5393.92c-17.59,5.69-29.61-17.71-14.7-28.72
			c204.2-151.25,687.79-599.27,333.11-1248.84c-8.84-16.22,11.33-32.53,25.19-20.31c181.17,159.98,607.13,620.67,101.01,1059.23
			C4890.5,5155.28,4721.45,5305.32,4445.89,5393.92z M4865.06,3711.42c14.88-24.98,28.6-52.63,41.36-82.38
			c9.97,16.13,20.59,29.48,27.68,38.4c8.42,10.65,17.82,21.7,27.75,33.06C4927.61,3702.48,4894.92,3706.96,4865.06,3711.42z
			 M5296.66,3814.79c-53.97-31.89-262.51-200.93-253.25-240.16c9.27-39.29,294.08,56.97,311.71,16.65
			c17.63-40.32-225.62-135.91-208.3-174.5c17.3-38.52,510.2-57.06,504.3-97.14c-5.82-40.14-575.49,14.08-583.84-55.12
			c0,0,652.9-359.58,814.75-288.9c161.8,70.6,215.86,3.65,213.17,97.48c-2.68,93.84-41.21,105.22-6.34,186.91
			c34.86,81.76,66.54,108.24-7.32,186.14c-73.78,77.91-28.68,177.18-93.51,225.41c-64.84,48.3-131.38-59.94-186.68,16.07
			c-55.24,76.03-62.07,186.81-132.71,174.16c-70.65-12.65-161.36-146.1-224.5-113.11
			C5380.95,3781.58,5350.63,3846.68,5296.66,3814.79z M4744.41,5626.2c-4.16,2.08-7.48-3.87-3.48-6.27
			c99.47-59.49,285.04-144.06,526.61-135.81c2.74,0.05,4.44,3.02,3.05,5.38c-28.12,47.44-239.77,406.36-301.62,550.84
			c-9.19,25.19-15.03,40.79-15.03,40.79c2.64-10.16,7.81-24.1,15.03-40.79c38.2-105.02,134.51-377.19,107.9-379.65
			c-26.17-2.46-206.25,160.18-280.43,228.28c-3.21,2.99-7.86-1.33-5.23-4.8c53.46-71.07,165.37-232.01,122.3-280.75
			C4881.9,5567.73,4805.24,5595.32,4744.41,5626.2z M6240.6,2822.35c0.92-152.87-281.47-271-231.28-336.71
			s235.83,15.77,235.83,15.77c-173,78.72-53.18,43.4-73.99,107.31c-20.88,63.9,156.58,149.56,137.84,233.02
			c-18.75,83.53,78.21,82.46,78.21,82.46S6239.77,2975.16,6240.6,2822.35z M6195.26,3153.15c-2.66-12.96,15.73-18.51,20.5-6.14
			c74.78,195.04,204.85,627.12,90.74,1049.74c-3.35,12.48-21.92,9.53-21.09-3.41C6296.48,4026.46,6300.96,3660.69,6195.26,3153.15z
			 M6560.34,3804.36c-95.35-143.65-159.37-567.69-132.61-653.65c26.71-86.04,216.96,182.6,216.96,182.6s-83.01-22.45-134.84,54.04
			C6457.97,3463.75,6560.34,3804.36,6560.34,3804.36z"/>
		<path class="st0" d="M2139.81,2455.78c-196.73,251.07,160.62,895.69,251,1020.61c86.22,119.12,110.22,189.27,42.47,353.44
			c-3.95,9.62,5.2,19.51,14.96,16.06c83.48-29.13,347.33-134.54,406.01-320.25c4.09-12.87-13.22-21.62-21.21-10.64
			c-45.72,63.16-132.06,160.97-206.79,124.18c-107.67-52.88,207.27-309.91,72.72-478.71c-111.67-140.11-294.47-166.45-351.46-307.24
			c-5.09-12.66-24.06-8.4-23.14,5.15c4.66,67.8,25.86,155.29,94.22,225.95c8.91,9.18-0.9,24.14-12.87,19.55
			c-81.56-31.4-234.7-137.09-230.15-488.28c0.13-11.94-15.27-16.86-21.94-6.98c-0.22,0.41-0.5,0.73-0.72,1.13
			c-7.29,11.25-24.92,3.42-21.62-9.59c30.21-119.31,143.53-247,526.87-114.88c13.79,4.77,22.68-14.59,9.99-21.77
			C2528.2,2384.55,2276.87,2280.98,2139.81,2455.78z M2551.46,3702.78c0.15-1.24,0.22-2.49,0.37-3.72c0.83,0.74,1.67,1.49,2.51,2.16
			C2553.42,3701.8,2552.44,3702.29,2551.46,3702.78z"/>
		<path class="st0" d="M2557.06,2379.02c-1.09,0.7-0.71,2.32,0.6,2.49c287.93,26.59,466.77,335.32,494.31,386.11
			c0.73,1.32,2.8,0.57,2.54-0.88c-44.51-282.3-384.17-396.05-416.38-406.27c-1.05-0.34-1.27-1.64-0.41-2.3l145.78-113.48
			c1.38-1.09-0.03-3.13-1.54-2.21L2557.06,2379.02z"/>
		<path class="st0" d="M2657.03,2592.77c-3.82-2.32-7.53,3.04-4.11,5.95c407.83,349.82,306.45,710.12,301.96,725.23
			C3117.15,2907.5,2770.04,2660.2,2657.03,2592.77z"/>
		<path class="st0" d="M2551.83,3699.06c-0.15,1.24-0.22,2.49-0.37,3.72c0.98-0.49,1.96-0.99,2.88-1.56
			C2553.5,3700.55,2552.66,3699.8,2551.83,3699.06z"/>
		<path class="st0" d="M3284.68,2121.41c-225.99-40.47-264.54,12.53-264.54,12.53c57.74-26.52,298.36,7.35,298.36,7.35
			c415.84-19.04,748.32,163.44,755.84,167.53C3897.59,2085.12,3284.68,2121.41,3284.68,2121.41z"/>
		<path class="st0" d="M2943.94,3619.14c-28.39,29.85,13.25,74.17,44.88,47.8c3.49-2.87,6.9-5.75,10.32-8.63
			c26.3-22.34,64.75,5.35,51.8,37.37c-17.6,43.52-50.6,95.81-112.01,146.13c-22.29,18.23-12.09,54.25,16.45,57.95
			c233.36,30.42,886.3,99.77,1013.21-57.74c6.01-7.4,8.53-16.91,6.87-26.34c-14.05-82.19-100.19-522.53-338.98-584.1
			c-13.36-3.43-27.37,1.79-35.27,13.08c-27.83,39.61-118.85,120.38-351.63-16.59c-16.75-9.84-38.38-3.16-46.52,14.49
			C3172.42,3309.02,3091.95,3463.32,2943.94,3619.14z"/>
		<path class="st0" d="M3236.88,2377.97c-6.72-75.38,44.89-109.54,47.58-111.29C3180.71,2305.63,3236.88,2377.97,3236.88,2377.97z"
			/>
		<path class="st0" d="M3491.13,2271.36c-130.36-18.73-188.83,37.61-192.47,122.28c-3.63,84.6,78.87,138.54,130.86,131.72
			c51.91-6.83,168.88-16.29,194.3-132.51c25.43-116.3-21.88,19.27-35.35,30.16c-13.47,10.89-64.66,84.67-146.08,72.4
			s-122.54-65.72-116.14-101.44c6.41-35.79,23.06-108.84,150.93-92.86c123,15.41,105.47,78.87,103.92,83.79
			C3583.4,2379.08,3617.29,2289.49,3491.13,2271.36z"/>
		<path class="st0" d="M3399.28,2320.69c-25.99,3.6-19.1,55.22,5.22,48.06c24.4-7.15,53.58-15.75,76.78,9.14
			c23.19,24.89,46.88,8.4,46.88,8.4C3530.42,2322.17,3425.25,2317.16,3399.28,2320.69z"/>
		<path class="st0" d="M3340.65,2663.01c-5.25-2.65-9.87,4.48-5.42,8.25c188.49,159.36,238.09,390.4,250.64,480.95
			c0.82,5.8,9.25,5.6,9.91-0.16C3633.46,2843.35,3426.24,2705.98,3340.65,2663.01z"/>
		<path class="st0" d="M3266.37,4055.71c-3.88-0.77-5.34,4.92-1.55,6.19c381.65,129.14,616.94,86.1,703.07,60.42
			c3.78-1.18,2.55-6.75-1.34-6.19C3764.72,4144.95,3393.49,4080.04,3266.37,4055.71z"/>
		<path class="st0" d="M3681.83,2493.55c-57.38,75.94-137.26,58.44-133.65,76.85c3.69,18.42,177.76,24.62,205.16-64.05
			s-13.05-218.1-47.9-212.75C3705.44,2293.61,3739.2,2417.61,3681.83,2493.55z"/>
		<path class="st0" d="M3735.71,2003.36c-7.24,1.01-6.85,11.71,0.44,12.05c156.55,8.19,511.46,55.84,671.69,314.94
			c3.35,5.36,11.69,2.76,11.21-3.64c-3.92-50.35-19.09-164.41-78.33-222.95c-3.6-3.54-1.54-9.64,3.47-10.23
			c109.8-13.41,910.04-75.17,1767.42,832.76c4.94,5.2,13.33-0.96,9.61-7.2C5994.76,2706.38,5350.86,1791.71,3735.71,2003.36z
			 M4234.95,2059.84c5.86,0.08,11.71,0.17,17.5,0.23c-1.14,2.62-2.2,5.25-3.21,7.97
			C4244.53,2065.27,4239.75,2062.48,4234.95,2059.84z"/>
		<path class="st0" d="M3382.32,5041.44c-5.66,1.74-4.49,10.12,1.51,10.23c230.89,3.14,675.57,241.38,760.97,288.26
			c4.73,2.63,9.86-2.77,6.97-7.37c-41.08-65.7-210.71-168.92-262.94-199.75c-4.57-2.68-2.73-9.63,2.57-9.8
			c120.49-2.95,256.93,42,315.89,63.85c5.57,2.11,9.8-5.31,5.19-9.03C3887.69,4915.5,3499.83,5005.32,3382.32,5041.44z"/>
		<path class="st0" d="M4121.75,5455.83c-224.17-222.46-660.29-296.02-660.29-296.02c128.4,22.99,339.27,152.02,402.74,192.3
			c5.61,3.53,3.49,12.07-3.1,12.75c-62.15,6.71-106.08,50.35-125.83,74.31c-4.17,5.05,0.28,12.54,6.68,11.23
			c116.17-23.64,309.58,6.16,373.72,17.35C4122.39,5468.88,4126.61,5460.64,4121.75,5455.83z"/>
		<path class="st0" d="M3974.56,3361.61c-25.54-10.52-46.97,21.99-26.98,41.1c218.3,208.33,220.07,465.74,213.04,554.78
			c-1.29,16.34,13.2,29.64,29.34,26.66c387.23-71.8,507.06-375.29,543.77-538.4c5.83-25.94-27.37-41.84-43.94-21.1
			c-88.35,110.31-259.44,275-410.92,133.93C4167.84,3455.23,4056.51,3395.39,3974.56,3361.61z"/>
		<path class="st0" d="M4252.45,2060.07c-5.78-0.07-11.64-0.15-17.5-0.23c4.8,2.64,9.58,5.43,14.29,8.21
			C4250.24,2065.32,4251.31,2062.69,4252.45,2060.07z"/>
		<path class="st3" d="M3997.74,4270.22l433.45-44.35c22.26-2.26,42.22,13.66,45.1,35.8c11.49,89.02,22.76,304.13-115.54,403.63
			c0,0,117.46-246.68,61.83-266.01c-54.3-18.87-253.39,66.48-263.53,70.84c9.83-6.34,200.38-129.49,131.14-166.19
			C4220.81,4267.21,4008.03,4270.06,3997.74,4270.22z M4346.8,4091.17c-134.6,103.36-498.87,180.54-452.78,188.79
			c54.52,9.76,83.01,50.69,106.85,131.74c23.92,80.99,57.67,92.16,190.44,122.33c132.7,30.15,11.06,338.37,218.28,181.05
			c87.66-66.58,125.24-185.98,139.5-301.68c0.73-12.8,2.11-26.75,4.17-41.99c0.11-0.2,0.08-0.43,0.12-0.65
			c2.06-26.46,3.05-52.3,3.21-76.87C4543.26,4094.76,4346.8,4091.17,4346.8,4091.17z"/>
		<path class="st0" d="M4250.77,2474.5c-5.9-8.12-18.4-0.62-14.01,8.49c170.7,352.1-29.29,783.64-56.34,838.85
			c-1.67,3.49-0.71,7.68,2.28,10.07l72.7,57.61c4.03,3.25,10.14,1.89,12.46-2.75C4501.61,2927.39,4347.33,2609.38,4250.77,2474.5z"
			/>
		<path class="st0" d="M3737.25,5511.55c0,0,11.15,1.63,29.88,4.98C3757.56,5513.92,3747.55,5512.13,3737.25,5511.55z"/>
		<path class="st0" d="M4780.5,1489.94c-125.63-2.36-540.68,355.52-547.18,361.12c253.55-54.12,688.11,156.82,799.61-21.29
			c111.51-178.18,310.43-147.62,310.43-147.62c-193.86-121.08-497.45,180.12-583.07,119.08
			c-82.05-58.54,233.98-251.54,259.74-267.14c-32.47,18.64-540.93,309.62-502.29,203.41
			C4557.73,1627.83,4780.5,1489.94,4780.5,1489.94z"/>
		<path class="st0" d="M4431.19,4225.87l-433.45,44.35c10.29-0.16,223.07-3.01,292.45,33.71c69.24,36.7-121.31,159.85-131.14,166.19
			c10.14-4.35,209.23-89.7,263.53-70.84c55.63,19.33-61.83,266.01-61.83,266.01c138.3-99.51,127.02-314.61,115.54-403.63
			C4473.42,4239.53,4453.45,4223.61,4431.19,4225.87z"/>
		<path class="st0" d="M3820.65,5753.47c-4.08,5.36,0.05,13.02,6.81,12.59c95.1-6.46,234.5-97.96,271-122.94
			c4.4-3,4.54-9.59,0.19-12.68c-94.01-66.04-263.11-101.67-331.53-113.92c75.57,20.44,127.98,95.53,140.54,115.02
			c1.73,2.76,1.54,6.37-0.41,8.92L3820.65,5753.47z"/>
		<path class="st0" d="M3821.03,5956c-3.8,4.6,1.7,10.86,6.85,7.84c44.02-25.86,84.99-28.04,100.7-27.75
			c3.4,0.09,5.94,3.37,4.97,6.69c-18.62,64.53-68.77,137.9-95.64,174.26c-3.55,4.87,2.37,10.83,7.28,7.47
			c160.53-108.68,270.71-345.45,295.01-401c1.89-4.34-2.5-8.85-6.93-6.96C3975.42,5782.82,3865.15,5902.21,3821.03,5956z"/>
		<path class="st0" d="M3801.32,6275.64c-3.58,3-0.55,8.89,4.04,7.71c92.42-23.44,164.81-93.12,190.18-120.24
			c3.03-3.25,8.34-0.51,7.63,3.89c-20.17,120.96-95.88,242-131.56,293.88c-3.01,4.37,2.7,9.4,6.61,5.87
			c156.35-140.12,339.68-569.97,401.84-723.24c2.02-5.06-5.07-8.64-7.92-3.94C4109.59,6006.04,3862.32,6223.9,3801.32,6275.64z"/>
		<path class="st0" d="M4782,3028.07c-171.22,475.12-406.76,384.63-424.23,377.19c18.82,9.46,302.29,140.65,519.25-376.97
			c153.27-365.73-14.78-567.44-136.77-658.63c-14.48-10.84-32.64,7.53-21.6,21.85C4800.34,2496.88,4898.33,2705.07,4782,3028.07z"/>
		<path class="st4" d="M4273.57,4051l73.23,40.17C4323.72,4077.67,4299.37,4064.24,4273.57,4051z"/>
		<path class="st0" d="M4190.97,6640.26c133.4-193.36,213.79-493.29,242.93-616.95c0.72-3.21-3.89-4.41-4.96-1.33
			c-230.07,690.01-796.4,1031.05-822.75,1046.62c67.51-35.4,336.17-204.18,380.65-232.18c2.01-1.27,4.61,0.83,3.69,3.04
			c-33.93,84.9-176.03,162.47-241.61,194.57c-2.86,1.42-1.09,5.68,1.9,4.73c445.18-147.64,606.04-629.6,628.78-705.13
			C4346.52,6437.41,4195.71,6634.12,4190.97,6640.26z"/>
		<path class="st0" d="M3798.58,6830.95c-4.43,5.23,2.53,12.42,7.97,8.19c397.73-311.4,643.81-1026.05,689.14-1166.28
			c0.32-0.98-1.14-1.54-1.55-0.5c-53.48,135.13-146.57,325.01-207.61,424.31c-3.75,6.02-12.86,1.26-10.06-5.22
			c69.85-164.68,86.01-302.26,86.01-302.26c-34.25,219.89-418.46,748.81-519.23,884.47c-4.11,5.51,3.1,12.15,8.28,7.73
			c60.13-51.07,127.36-135.95,160.95-180.33c4.08-5.36,12.44-0.6,9.84,5.63C3979.16,6611.99,3858.24,6760.91,3798.58,6830.95z"/>
		<path class="st4" d="M4273.57,4051c25.8,13.24,50.15,26.67,73.23,40.17c0,0,196.47,3.59,209.79,202.72
			c0.19-16.02-0.01-31.51-0.42-46.23c63.36,63.3,104.28,127.41,127.79,190.78C4634.78,4271.47,4497.36,3903.7,4273.57,4051z"/>
		<path class="st0" d="M4180.56,5557.41c-11.92,52.87-11.47,91.45,14.25,93.9c178.87,16.79,979.83-296.8,979.83-296.8
			c1202.4-460.97,886.76-1173.7,725.46-1425.56c-11.28-17.55-38.4-5.54-32.93,14.54c63.22,231.77,22.42,339.67-9.51,384.71
			c-9.34,13.12-29.94,8.24-32.67-7.63c-50.97-298.92-298.75-408.18-412.19-442.98c-16.77-5.16-30.16,14-19.92,28.24
			c43.45,60.33,38.38,107.36,27.89,134.77c-4.99,12.93-21.61,15.68-30.86,5.47c-79.66-88.07-357.12-147.42-503.06-173.33
			c-19.59-3.51-29.61,22.57-12.8,33.31c1081.67,690.11,149.66,1342.87,76.91,1394.28c-109.42,77.25-672.24,298.29-721.86,284.43
			c-7.65-2.11-11.56-10.99-12.64-24.49C4214.82,5539.17,4185.15,5536.76,4180.56,5557.41z"/>
		<path class="st0" d="M4491.62,5106.22c-201.23,129.26-211.23,251.52-208.09,292.07c0.27,3.91,5.62,4.72,7.1,1.05
			c50.7-125.82,156.64-239.3,205.7-287.45C4499.49,5108.74,4495.4,5103.77,4491.62,5106.22z"/>
		<path class="st4" d="M4556.17,4247.66c0.41,14.72,0.61,30.21,0.42,46.23c1.61,22.96,0.69,48.44-3.21,76.87
			c-0.04,0.22-0.01,0.45-0.12,0.65c-1,13.87-2.39,27.89-4.17,41.99c-5.94,100.39,26.44,130.05,63.09,132.89
			c1.83-6.51,3.58-12.96,5.2-19.51c1.14,6.52,2.04,13.08,2.71,19.74c39.85-0.89,82-29.17,84.29-30.76c0.01-0.07,0.03-0.14,0.03-0.14
			c-0.1-0.69-0.2-1.37-0.38-2c-1.77-7.53-8.44-35.48-19.88-74.54c-0.03-0.23-0.08-0.39-0.19-0.63
			C4660.45,4375.07,4619.53,4310.96,4556.17,4247.66z"/>
		<path class="st4" d="M4556.59,4293.89c-0.16,24.57-1.15,50.41-3.21,76.87C4557.28,4342.32,4558.2,4316.85,4556.59,4293.89z"/>
		<path class="st4" d="M4553.26,4371.41c-2.06,15.24-3.44,29.19-4.17,41.99C4550.87,4399.3,4552.26,4385.28,4553.26,4371.41z"/>
		<path class="st0" d="M4431.19,5365.2c-14.9,11.01-2.89,34.41,14.7,28.72c275.56-88.6,444.61-238.64,444.61-238.64
			c506.12-438.56,80.16-899.25-101.01-1059.23c-13.87-12.22-34.03,4.09-25.19,20.31C5118.98,4765.92,4635.39,5213.95,4431.19,5365.2
			z"/>
		<path class="st4" d="M4617.38,4526.78c-1.62,6.55-3.37,13-5.2,19.51c2.64,0.18,5.3,0.28,7.91,0.23
			C4619.42,4539.86,4618.51,4533.3,4617.38,4526.78z"/>
		<path class="st4" d="M4704.02,4513.61c-4.06-24.66-10.6-49.54-19.88-74.54C4695.58,4478.13,4702.25,4506.08,4704.02,4513.61z"/>
		<path class="st4" d="M4704.41,4515.61c0,0-0.01,0.07-0.03,0.14c0.08-0.06,0.08-0.06,0.08-0.06S4704.46,4515.69,4704.41,4515.61z"
			/>
		<path class="st0" d="M4381.46,6327.35c-0.42,1.49-0.98,3.39-1.68,5.65C4380.42,6331.1,4380.91,6329.18,4381.46,6327.35z"/>
		<path class="st0" d="M4906.42,3629.04c-12.76,29.75-26.48,57.39-41.36,82.38c29.86-4.46,62.55-8.94,96.79-10.91
			c-9.93-11.37-19.32-22.41-27.75-33.06C4927.01,3658.52,4916.39,3645.17,4906.42,3629.04z"/>
		<path class="st0" d="M5459.71,1753.75c0,0-293.14,105-245.37,235.45c47.76,130.52,263.48,31.95,607.73,322.21
			c0,0,87.48,107.08,238.09-109.73c0,0-87.2,4.68-162.62,57.25c-75.47,52.49-107.48-146.49,24.87-167.53
			c0,0-123.96-41.15-202.72,25.91c-77.78,66.19-241.23-127.18-124.44-208.24c-31.96,20.74-215.08,136.89-224.12,83.62
			C5361.3,1934.28,5267.05,1978.35,5459.71,1753.75z"/>
		<path class="st0" d="M5043.41,3574.64c-9.25,39.22,199.28,208.27,253.25,240.16c53.97,31.89,84.29-33.22,147.48-66.12
			c63.14-32.99,153.85,100.46,224.5,113.11c70.65,12.65,77.48-98.13,132.71-174.16c55.31-76.02,121.85,32.22,186.68-16.07
			c64.82-48.22,19.72-147.5,93.51-225.41c73.85-77.9,42.18-104.38,7.32-186.14c-34.87-81.68,3.66-93.07,6.34-186.91
			c2.68-93.84-51.37-26.89-213.17-97.48c-161.86-70.68-814.75,288.9-814.75,288.9c8.34,69.2,578.02,14.99,583.84,55.12
			c5.9,40.08-486.99,58.62-504.3,97.14c-17.32,38.6,225.93,134.18,208.3,174.5C5337.49,3631.61,5052.67,3535.34,5043.41,3574.64z"/>
		<path class="st0" d="M4740.93,5619.93c-4,2.41-0.68,8.35,3.48,6.27c60.83-30.88,137.49-58.47,169.08-22.79
			c43.08,48.74-68.84,209.68-122.3,280.75c-2.63,3.47,2.02,7.79,5.23,4.8c74.18-68.1,254.26-230.73,280.43-228.28
			c26.61,2.46-69.69,274.64-107.9,379.65c61.85-144.49,273.5-503.41,301.62-550.84c1.39-2.35-0.31-5.33-3.05-5.38
			C5025.97,5475.87,4840.4,5560.44,4740.93,5619.93z M5115.2,5581.48c-0.96-0.47-1.91-0.94-2.88-1.33c1.3-0.21,2.66-0.34,3.96-0.55
			C5115.95,5580.2,5115.61,5580.81,5115.2,5581.48z"/>
		<path class="st0" d="M4953.93,6081.13c0,0,5.84-15.6,15.03-40.79C4961.74,6057.03,4956.56,6070.97,4953.93,6081.13z"/>
		<path class="st0" d="M5112.31,5580.15c0.97,0.4,1.93,0.87,2.88,1.33c0.42-0.67,0.75-1.28,1.08-1.89
			C5114.98,5579.81,5113.62,5579.94,5112.31,5580.15z"/>
		<path class="st0" d="M5105.03,5925.49c-12,15.99,9.96,35.3,24.21,21.28c103.67-101.62,225.65-209.18,236.64-164.32
			c18.87,76.81-87.62,351.92-93.67,367.41c8.43-18.86,192.95-430.42,240.03-402.82c22.06,12.94,30.31,76.85,32.7,142.39
			c0.75,19.9,29.73,21.16,32.23,1.39c6.44-50.5,8.64-107.19-0.37-160.24c-17.26-101.57,23.9-250.95,49.83-330.59
			c5-15.46-13.44-27.9-25.81-17.33C5397.64,5556.54,5217.83,5775.79,5105.03,5925.49z M5415.3,5705.31
			c-3.27-2.52-6.58-4.75-10.14-6.87c26.98-29.88,54.93-59.81,83.74-89.51c-1.88,17.13-3.14,34.15-3.68,50.85
			C5460.92,5665.09,5438.31,5680.15,5415.3,5705.31z"/>
		<path class="st0" d="M5405.16,5698.44c3.56,2.12,6.88,4.35,10.14,6.87c23.01-25.16,45.63-40.22,69.92-45.53
			c0.54-16.7,1.8-33.72,3.68-50.85C5460.09,5638.63,5432.13,5668.56,5405.16,5698.44z"/>
		<path class="st0" d="M6009.31,2485.64c-50.19,65.71,232.2,183.84,231.28,336.71c-0.83,152.81,146.62,101.84,146.62,101.84
			s-96.96,1.07-78.21-82.46c18.74-83.46-158.72-169.12-137.84-233.02c20.81-63.91-99.01-28.58,73.99-107.31
			C6245.15,2501.41,6059.51,2419.93,6009.31,2485.64z"/>
		<path class="st0" d="M6215.75,3147.01c-4.77-12.37-23.16-6.82-20.5,6.14c105.7,507.54,101.23,873.31,90.15,1040.19
			c-0.83,12.93,17.74,15.89,21.09,3.41C6420.6,3774.13,6290.53,3342.05,6215.75,3147.01z"/>
		<path class="st0" d="M6427.74,3150.71c-26.76,85.96,37.26,510,132.61,653.65c0,0-102.37-340.6-50.49-417.01
			c51.83-76.49,134.84-54.04,134.84-54.04S6454.44,3064.67,6427.74,3150.71z"/>
	</g>
	<g>
	</g>
</g>
<text transform="matrix(1 0 0 1 849.9008 4281.7109)" class="st5 st6">EST</text>
<text transform="matrix(1 0 0 1 7385.8115 4281.7104)" class="st5 st6">2022</text>
<rect x="7188.17" y="3855.27" class="st3" width="984.28" height="148.75"/>
<rect x="7188.17" y="4377.3" class="st3" width="984.28" height="148.75"/>
<rect x="581.16" y="3855.27" class="st3" width="984.28" height="148.75"/>
<rect x="581.16" y="4377.3" class="st3" width="984.28" height="148.75"/>
</svg>
